<?xml version="1.0" encoding="utf-8" ?>
<svg baseProfile="tiny" height="100%" version="1.2" width="100%" xmlns="http://www.w3.org/2000/svg" xmlns:ev="http://www.w3.org/2001/xml-events" xmlns:xlink="http://www.w3.org/1999/xlink"><defs /><line stroke="rgb(0%,0%,0%)" stroke-dasharray="50,50" stroke-dashoffset="0" stroke-width="1mm" x1="0" x2="3000" y1="0" y2="0" /><line stroke="rgb(0%,0%,0%)" stroke-dasharray="50,50" stroke-dashoffset="0" stroke-width="1mm" x1="0" x2="3000" y1="50" y2="50" /><line stroke="rgb(0%,0%,0%)" stroke-dasharray="50,50" stroke-dashoffset="50" stroke-width="1mm" x1="0" x2="3000" y1="100" y2="100" /><line stroke="rgb(0%,0%,0%)" stroke-dasharray="50,50" stroke-dashoffset="0" stroke-width="1mm" x1="0" x2="3000" y1="150" y2="150" /><line stroke="rgb(0%,0%,0%)" stroke-dasharray="50,50" stroke-dashoffset="50" stroke-width="1mm" x1="0" x2="3000" y1="200" y2="200" /><line stroke="rgb(0%,0%,0%)" stroke-dasharray="50,50" stroke-dashoffset="50" stroke-width="1mm" x1="0" x2="3000" y1="250" y2="250" /><line stroke="rgb(0%,0%,0%)" stroke-dasharray="50,50" stroke-dashoffset="50" stroke-width="1mm" x1="0" x2="3000" y1="300" y2="300" /><line stroke="rgb(0%,0%,0%)" stroke-dasharray="50,50" stroke-dashoffset="50" stroke-width="1mm" x1="0" x2="3000" y1="350" y2="350" /><line stroke="rgb(0%,0%,0%)" stroke-dasharray="50,50" stroke-dashoffset="0" stroke-width="1mm" x1="0" x2="3000" y1="400" y2="400" /><line stroke="rgb(0%,0%,0%)" stroke-dasharray="50,50" stroke-dashoffset="0" stroke-width="1mm" x1="0" x2="3000" y1="450" y2="450" /><line stroke="rgb(0%,0%,0%)" stroke-dasharray="50,50" stroke-dashoffset="50" stroke-width="1mm" x1="0" x2="3000" y1="500" y2="500" /><line stroke="rgb(0%,0%,0%)" stroke-dasharray="50,50" stroke-dashoffset="0" stroke-width="1mm" x1="0" x2="3000" y1="550" y2="550" /><line stroke="rgb(0%,0%,0%)" stroke-dasharray="50,50" stroke-dashoffset="50" stroke-width="1mm" x1="0" x2="3000" y1="600" y2="600" /><line stroke="rgb(0%,0%,0%)" stroke-dasharray="50,50" stroke-dashoffset="50" stroke-width="1mm" x1="0" x2="3000" y1="650" y2="650" /><line stroke="rgb(0%,0%,0%)" stroke-dasharray="50,50" stroke-dashoffset="0" stroke-width="1mm" x1="0" x2="3000" y1="700" y2="700" /><line stroke="rgb(0%,0%,0%)" stroke-dasharray="50,50" stroke-dashoffset="50" stroke-width="1mm" x1="0" x2="3000" y1="750" y2="750" /><line stroke="rgb(0%,0%,0%)" stroke-dasharray="50,50" stroke-dashoffset="50" stroke-width="1mm" x1="0" x2="3000" y1="800" y2="800" /><line stroke="rgb(0%,0%,0%)" stroke-dasharray="50,50" stroke-dashoffset="0" stroke-width="1mm" x1="0" x2="3000" y1="850" y2="850" /><line stroke="rgb(0%,0%,0%)" stroke-dasharray="50,50" stroke-dashoffset="0" stroke-width="1mm" x1="0" x2="3000" y1="900" y2="900" /><line stroke="rgb(0%,0%,0%)" stroke-dasharray="50,50" stroke-dashoffset="50" stroke-width="1mm" x1="0" x2="3000" y1="950" y2="950" /><line stroke="rgb(0%,0%,0%)" stroke-dasharray="50,50" stroke-dashoffset="0" stroke-width="1mm" x1="0" x2="3000" y1="1000" y2="1000" /><line stroke="rgb(0%,0%,0%)" stroke-dasharray="50,50" stroke-dashoffset="0" stroke-width="1mm" x1="0" x2="3000" y1="1050" y2="1050" /><line stroke="rgb(0%,0%,0%)" stroke-dasharray="50,50" stroke-dashoffset="0" stroke-width="1mm" x1="0" x2="3000" y1="1100" y2="1100" /><line stroke="rgb(0%,0%,0%)" stroke-dasharray="50,50" stroke-dashoffset="0" stroke-width="1mm" x1="0" x2="3000" y1="1150" y2="1150" /><line stroke="rgb(0%,0%,0%)" stroke-dasharray="50,50" stroke-dashoffset="50" stroke-width="1mm" x1="0" x2="3000" y1="1200" y2="1200" /><line stroke="rgb(0%,0%,0%)" stroke-dasharray="50,50" stroke-dashoffset="0" stroke-width="1mm" x1="0" x2="3000" y1="1250" y2="1250" /><line stroke="rgb(0%,0%,0%)" stroke-dasharray="50,50" stroke-dashoffset="50" stroke-width="1mm" x1="0" x2="3000" y1="1300" y2="1300" /><line stroke="rgb(0%,0%,0%)" stroke-dasharray="50,50" stroke-dashoffset="0" stroke-width="1mm" x1="0" x2="3000" y1="1350" y2="1350" /><line stroke="rgb(0%,0%,0%)" stroke-dasharray="50,50" stroke-dashoffset="0" stroke-width="1mm" x1="0" x2="3000" y1="1400" y2="1400" /><line stroke="rgb(0%,0%,0%)" stroke-dasharray="50,50" stroke-dashoffset="50" stroke-width="1mm" x1="0" x2="3000" y1="1450" y2="1450" /><line stroke="rgb(0%,0%,0%)" stroke-dasharray="50,50" stroke-dashoffset="50" stroke-width="1mm" x1="0" x2="3000" y1="1500" y2="1500" /><line stroke="rgb(0%,0%,0%)" stroke-dasharray="50,50" stroke-dashoffset="0" stroke-width="1mm" x1="0" x2="3000" y1="1550" y2="1550" /><line stroke="rgb(0%,0%,0%)" stroke-dasharray="50,50" stroke-dashoffset="50" stroke-width="1mm" x1="0" x2="3000" y1="1600" y2="1600" /><line stroke="rgb(0%,0%,0%)" stroke-dasharray="50,50" stroke-dashoffset="0" stroke-width="1mm" x1="0" x2="3000" y1="1650" y2="1650" /><line stroke="rgb(0%,0%,0%)" stroke-dasharray="50,50" stroke-dashoffset="0" stroke-width="1mm" x1="0" x2="3000" y1="1700" y2="1700" /><line stroke="rgb(0%,0%,0%)" stroke-dasharray="50,50" stroke-dashoffset="50" stroke-width="1mm" x1="0" x2="3000" y1="1750" y2="1750" /><line stroke="rgb(0%,0%,0%)" stroke-dasharray="50,50" stroke-dashoffset="50" stroke-width="1mm" x1="0" x2="3000" y1="1800" y2="1800" /><line stroke="rgb(0%,0%,0%)" stroke-dasharray="50,50" stroke-dashoffset="0" stroke-width="1mm" x1="0" x2="3000" y1="1850" y2="1850" /><line stroke="rgb(0%,0%,0%)" stroke-dasharray="50,50" stroke-dashoffset="50" stroke-width="1mm" x1="0" x2="3000" y1="1900" y2="1900" /><line stroke="rgb(0%,0%,0%)" stroke-dasharray="50,50" stroke-dashoffset="0" stroke-width="1mm" x1="0" x2="3000" y1="1950" y2="1950" /><line stroke="rgb(0%,0%,0%)" stroke-dasharray="50,50" stroke-dashoffset="0" stroke-width="1mm" x1="0" x2="0" y1="0" y2="2000" /><line stroke="rgb(0%,0%,0%)" stroke-dasharray="50,50" stroke-dashoffset="50" stroke-width="1mm" x1="50" x2="50" y1="0" y2="2000" /><line stroke="rgb(0%,0%,0%)" stroke-dasharray="50,50" stroke-dashoffset="0" stroke-width="1mm" x1="100" x2="100" y1="0" y2="2000" /><line stroke="rgb(0%,0%,0%)" stroke-dasharray="50,50" stroke-dashoffset="50" stroke-width="1mm" x1="150" x2="150" y1="0" y2="2000" /><line stroke="rgb(0%,0%,0%)" stroke-dasharray="50,50" stroke-dashoffset="50" stroke-width="1mm" x1="200" x2="200" y1="0" y2="2000" /><line stroke="rgb(0%,0%,0%)" stroke-dasharray="50,50" stroke-dashoffset="0" stroke-width="1mm" x1="250" x2="250" y1="0" y2="2000" /><line stroke="rgb(0%,0%,0%)" stroke-dasharray="50,50" stroke-dashoffset="50" stroke-width="1mm" x1="300" x2="300" y1="0" y2="2000" /><line stroke="rgb(0%,0%,0%)" stroke-dasharray="50,50" stroke-dashoffset="50" stroke-width="1mm" x1="350" x2="350" y1="0" y2="2000" /><line stroke="rgb(0%,0%,0%)" stroke-dasharray="50,50" stroke-dashoffset="50" stroke-width="1mm" x1="400" x2="400" y1="0" y2="2000" /><line stroke="rgb(0%,0%,0%)" stroke-dasharray="50,50" stroke-dashoffset="50" stroke-width="1mm" x1="450" x2="450" y1="0" y2="2000" /><line stroke="rgb(0%,0%,0%)" stroke-dasharray="50,50" stroke-dashoffset="0" stroke-width="1mm" x1="500" x2="500" y1="0" y2="2000" /><line stroke="rgb(0%,0%,0%)" stroke-dasharray="50,50" stroke-dashoffset="50" stroke-width="1mm" x1="550" x2="550" y1="0" y2="2000" /><line stroke="rgb(0%,0%,0%)" stroke-dasharray="50,50" stroke-dashoffset="0" stroke-width="1mm" x1="600" x2="600" y1="0" y2="2000" /><line stroke="rgb(0%,0%,0%)" stroke-dasharray="50,50" stroke-dashoffset="50" stroke-width="1mm" x1="650" x2="650" y1="0" y2="2000" /><line stroke="rgb(0%,0%,0%)" stroke-dasharray="50,50" stroke-dashoffset="50" stroke-width="1mm" x1="700" x2="700" y1="0" y2="2000" /><line stroke="rgb(0%,0%,0%)" stroke-dasharray="50,50" stroke-dashoffset="0" stroke-width="1mm" x1="750" x2="750" y1="0" y2="2000" /><line stroke="rgb(0%,0%,0%)" stroke-dasharray="50,50" stroke-dashoffset="50" stroke-width="1mm" x1="800" x2="800" y1="0" y2="2000" /><line stroke="rgb(0%,0%,0%)" stroke-dasharray="50,50" stroke-dashoffset="50" stroke-width="1mm" x1="850" x2="850" y1="0" y2="2000" /><line stroke="rgb(0%,0%,0%)" stroke-dasharray="50,50" stroke-dashoffset="0" stroke-width="1mm" x1="900" x2="900" y1="0" y2="2000" /><line stroke="rgb(0%,0%,0%)" stroke-dasharray="50,50" stroke-dashoffset="50" stroke-width="1mm" x1="950" x2="950" y1="0" y2="2000" /><line stroke="rgb(0%,0%,0%)" stroke-dasharray="50,50" stroke-dashoffset="0" stroke-width="1mm" x1="1000" x2="1000" y1="0" y2="2000" /><line stroke="rgb(0%,0%,0%)" stroke-dasharray="50,50" stroke-dashoffset="0" stroke-width="1mm" x1="1050" x2="1050" y1="0" y2="2000" /><line stroke="rgb(0%,0%,0%)" stroke-dasharray="50,50" stroke-dashoffset="50" stroke-width="1mm" x1="1100" x2="1100" y1="0" y2="2000" /><line stroke="rgb(0%,0%,0%)" stroke-dasharray="50,50" stroke-dashoffset="50" stroke-width="1mm" x1="1150" x2="1150" y1="0" y2="2000" /><line stroke="rgb(0%,0%,0%)" stroke-dasharray="50,50" stroke-dashoffset="50" stroke-width="1mm" x1="1200" x2="1200" y1="0" y2="2000" /><line stroke="rgb(0%,0%,0%)" stroke-dasharray="50,50" stroke-dashoffset="0" stroke-width="1mm" x1="1250" x2="1250" y1="0" y2="2000" /><line stroke="rgb(0%,0%,0%)" stroke-dasharray="50,50" stroke-dashoffset="50" stroke-width="1mm" x1="1300" x2="1300" y1="0" y2="2000" /><line stroke="rgb(0%,0%,0%)" stroke-dasharray="50,50" stroke-dashoffset="0" stroke-width="1mm" x1="1350" x2="1350" y1="0" y2="2000" /><line stroke="rgb(0%,0%,0%)" stroke-dasharray="50,50" stroke-dashoffset="50" stroke-width="1mm" x1="1400" x2="1400" y1="0" y2="2000" /><line stroke="rgb(0%,0%,0%)" stroke-dasharray="50,50" stroke-dashoffset="50" stroke-width="1mm" x1="1450" x2="1450" y1="0" y2="2000" /><line stroke="rgb(0%,0%,0%)" stroke-dasharray="50,50" stroke-dashoffset="0" stroke-width="1mm" x1="1500" x2="1500" y1="0" y2="2000" /><line stroke="rgb(0%,0%,0%)" stroke-dasharray="50,50" stroke-dashoffset="0" stroke-width="1mm" x1="1550" x2="1550" y1="0" y2="2000" /><line stroke="rgb(0%,0%,0%)" stroke-dasharray="50,50" stroke-dashoffset="0" stroke-width="1mm" x1="1600" x2="1600" y1="0" y2="2000" /><line stroke="rgb(0%,0%,0%)" stroke-dasharray="50,50" stroke-dashoffset="0" stroke-width="1mm" x1="1650" x2="1650" y1="0" y2="2000" /><line stroke="rgb(0%,0%,0%)" stroke-dasharray="50,50" stroke-dashoffset="0" stroke-width="1mm" x1="1700" x2="1700" y1="0" y2="2000" /><line stroke="rgb(0%,0%,0%)" stroke-dasharray="50,50" stroke-dashoffset="0" stroke-width="1mm" x1="1750" x2="1750" y1="0" y2="2000" /><line stroke="rgb(0%,0%,0%)" stroke-dasharray="50,50" stroke-dashoffset="50" stroke-width="1mm" x1="1800" x2="1800" y1="0" y2="2000" /><line stroke="rgb(0%,0%,0%)" stroke-dasharray="50,50" stroke-dashoffset="50" stroke-width="1mm" x1="1850" x2="1850" y1="0" y2="2000" /><line stroke="rgb(0%,0%,0%)" stroke-dasharray="50,50" stroke-dashoffset="50" stroke-width="1mm" x1="1900" x2="1900" y1="0" y2="2000" /><line stroke="rgb(0%,0%,0%)" stroke-dasharray="50,50" stroke-dashoffset="50" stroke-width="1mm" x1="1950" x2="1950" y1="0" y2="2000" /><line stroke="rgb(0%,0%,0%)" stroke-dasharray="50,50" stroke-dashoffset="50" stroke-width="1mm" x1="2000" x2="2000" y1="0" y2="2000" /><line stroke="rgb(0%,0%,0%)" stroke-dasharray="50,50" stroke-dashoffset="0" stroke-width="1mm" x1="2050" x2="2050" y1="0" y2="2000" /><line stroke="rgb(0%,0%,0%)" stroke-dasharray="50,50" stroke-dashoffset="50" stroke-width="1mm" x1="2100" x2="2100" y1="0" y2="2000" /><line stroke="rgb(0%,0%,0%)" stroke-dasharray="50,50" stroke-dashoffset="0" stroke-width="1mm" x1="2150" x2="2150" y1="0" y2="2000" /><line stroke="rgb(0%,0%,0%)" stroke-dasharray="50,50" stroke-dashoffset="0" stroke-width="1mm" x1="2200" x2="2200" y1="0" y2="2000" /><line stroke="rgb(0%,0%,0%)" stroke-dasharray="50,50" stroke-dashoffset="50" stroke-width="1mm" x1="2250" x2="2250" y1="0" y2="2000" /><line stroke="rgb(0%,0%,0%)" stroke-dasharray="50,50" stroke-dashoffset="0" stroke-width="1mm" x1="2300" x2="2300" y1="0" y2="2000" /><line stroke="rgb(0%,0%,0%)" stroke-dasharray="50,50" stroke-dashoffset="50" stroke-width="1mm" x1="2350" x2="2350" y1="0" y2="2000" /><line stroke="rgb(0%,0%,0%)" stroke-dasharray="50,50" stroke-dashoffset="50" stroke-width="1mm" x1="2400" x2="2400" y1="0" y2="2000" /><line stroke="rgb(0%,0%,0%)" stroke-dasharray="50,50" stroke-dashoffset="0" stroke-width="1mm" x1="2450" x2="2450" y1="0" y2="2000" /><line stroke="rgb(0%,0%,0%)" stroke-dasharray="50,50" stroke-dashoffset="50" stroke-width="1mm" x1="2500" x2="2500" y1="0" y2="2000" /><line stroke="rgb(0%,0%,0%)" stroke-dasharray="50,50" stroke-dashoffset="50" stroke-width="1mm" x1="2550" x2="2550" y1="0" y2="2000" /><line stroke="rgb(0%,0%,0%)" stroke-dasharray="50,50" stroke-dashoffset="50" stroke-width="1mm" x1="2600" x2="2600" y1="0" y2="2000" /><line stroke="rgb(0%,0%,0%)" stroke-dasharray="50,50" stroke-dashoffset="50" stroke-width="1mm" x1="2650" x2="2650" y1="0" y2="2000" /><line stroke="rgb(0%,0%,0%)" stroke-dasharray="50,50" stroke-dashoffset="50" stroke-width="1mm" x1="2700" x2="2700" y1="0" y2="2000" /><line stroke="rgb(0%,0%,0%)" stroke-dasharray="50,50" stroke-dashoffset="0" stroke-width="1mm" x1="2750" x2="2750" y1="0" y2="2000" /><line stroke="rgb(0%,0%,0%)" stroke-dasharray="50,50" stroke-dashoffset="50" stroke-width="1mm" x1="2800" x2="2800" y1="0" y2="2000" /><line stroke="rgb(0%,0%,0%)" stroke-dasharray="50,50" stroke-dashoffset="50" stroke-width="1mm" x1="2850" x2="2850" y1="0" y2="2000" /><line stroke="rgb(0%,0%,0%)" stroke-dasharray="50,50" stroke-dashoffset="0" stroke-width="1mm" x1="2900" x2="2900" y1="0" y2="2000" /><line stroke="rgb(0%,0%,0%)" stroke-dasharray="50,50" stroke-dashoffset="0" stroke-width="1mm" x1="2950" x2="2950" y1="0" y2="2000" /></svg>